<svg xmlns="http://www.w3.org/2000/svg" width="380" height="300"><style>rect{stroke-width:2}.hw{fill:#74ffb5;stroke:#008066}text{text-anchor:middle;color:#000;font-size:22px;font-family:Bitstream Vera Sans,sans-serif}</style><defs><marker id="arrowEnd" markerWidth="4" orient="auto" refX="1" refY="1.5"><path d="M0 3l4-1.5L0 0l1 1.5z"/></marker><marker id="arrowStart" markerWidth="4" orient="auto" refX="3" refY="1.5"><path d="M4 3L0 1.5 4 0 3 1.5z"/></marker></defs><g id="hardware"><rect width="100" height="80" x="15" y="203" class="hw" rx="8" ry="8"/><rect width="100" height="80" x="139" y="203" class="hw" rx="8" ry="8"/><rect width="100" height="80" x="263" y="203" class="hw" rx="8" ry="8"/><text x="66" y="252">CPU</text><text x="190" y="252">Memory</text><text x="314" y="252">Devices</text></g><g id="kernel"><rect width="348" height="80" x="15" y="109" fill="#989dff" stroke="navy" rx="8" ry="8"/><text x="190" y="158">Kernel</text></g><g id="apps"><rect width="348" height="80" x="15" y="15" fill="#ff818a" stroke="red" rx="8" ry="8"/><text x="190" y="64">Applications</text></g><g id="arrows"><path d="M190 87v32M66 181v32M190 181v32M314 181v32"/></g></svg>